<?xml version="1.0" encoding="UTF-8"?>
<svg version="1.1" xmlns="http://www.w3.org/2000/svg" width="640" height="640">
<path d="M0 0 C211.2 0 422.4 0 640 0 C640 211.2 640 422.4 640 640 C428.8 640 217.6 640 0 640 C0 428.8 0 217.6 0 0 Z " fill="#000000" transform="translate(0,0)"/>
<path d="M0 0 C21.45 0 42.9 0 65 0 C65 78.54 65 157.08 65 238 C-26.82352941 238 -26.82352941 238 -53 230 C-54.12510986 229.66838867 -54.12510986 229.66838867 -55.27294922 229.33007812 C-61.35997256 227.5319917 -67.37789439 225.57766594 -73.375 223.5 C-74.25027344 223.20480469 -75.12554687 222.90960938 -76.02734375 222.60546875 C-76.87167969 222.31285156 -77.71601563 222.02023437 -78.5859375 221.71875 C-79.71588135 221.33106445 -79.71588135 221.33106445 -80.86865234 220.93554688 C-83.21193304 219.90697281 -84.98964385 218.57103841 -87 217 C-88.39712019 216.40974379 -89.81674949 215.87112518 -91.25 215.375 C-110.27476135 207.94258594 -128.33683648 195.07213389 -143 181 C-144.43205881 179.76449828 -145.86936474 178.53504553 -147.3125 177.3125 C-150.60784719 174.45653243 -153.26069984 171.38384137 -156 168 C-156.66 167.67 -157.32 167.34 -158 167 C-158 190.43 -158 213.86 -158 238 C-179.45 238 -200.9 238 -223 238 C-223 159.79 -223 81.58 -223 1 C-201.55 1 -180.1 1 -158 1 C-157.25 17.5625 -157.25 17.5625 -157.04394531 22.68579102 C-156.57124393 32.64738688 -154.88846531 41.45624035 -152 51 C-151.40954926 53.31069296 -150.82529364 55.62298682 -150.25 57.9375 C-148.08411609 65.42960428 -144.78558886 72.10998083 -141.10302734 78.95019531 C-139.99581863 81.00777042 -138.91421775 83.07761686 -137.83203125 85.1484375 C-133.08429634 94.06589464 -127.68525504 101.39778813 -121 109 C-119.60058114 110.78886752 -118.20472045 112.58052449 -116.8125 114.375 C-106.30757999 127.16119861 -91.03106194 142.63552013 -75 148 C-75 148.66 -75 149.32 -75 150 C-74.175 150.2475 -73.35 150.495 -72.5 150.75 C-67.86443131 152.40556025 -63.61389099 154.62865217 -59.26098633 156.91235352 C-54.43301178 159.39794337 -49.56255075 161.40184883 -44.4375 163.1875 C-43.72142578 163.44724609 -43.00535156 163.70699219 -42.26757812 163.97460938 C-37.84303223 165.53266148 -33.67127482 166.4014055 -29 167 C-27.44350443 167.45172742 -25.89814281 167.94612989 -24.375 168.5 C-16.22159305 171.44346821 -8.9737013 171.40175325 0 172 C0 115.24 0 58.48 0 0 Z " fill="#FC0000" transform="translate(399,257)"/>
<path d="M0 0 C95.04 0 190.08 0 288 0 C288 21.45 288 42.9 288 65 C251.04 65 214.08 65 176 65 C176 117.14 176 169.28 176 223 C171.89141638 221.9728541 169.36951564 220.38733768 166 218 C165.20851563 217.45730469 164.41703125 216.91460937 163.6015625 216.35546875 C156.92230038 211.7521935 151.00496577 207.45802035 146 201 C145.2575 200.278125 144.515 199.55625 143.75 198.8125 C137.04266866 191.95272931 131.59736476 184.40168411 127 176 C126.360625 174.86175781 125.72125 173.72351563 125.0625 172.55078125 C120.96019341 164.98901583 117.94226974 157.39616885 115.5625 149.125 C115.31564453 148.26994873 115.06878906 147.41489746 114.81445312 146.53393555 C111.89582633 135.77929473 111.85857633 125.11405076 111.90234375 114.0234375 C111.90335083 112.7753833 111.90435791 111.5273291 111.90539551 110.24145508 C111.9105921 105.61929392 111.92455313 100.99714595 111.9375 96.375 C111.958125 86.02125 111.97875 75.6675 112 65 C75.04 65 38.08 65 0 65 C0 43.55 0 22.1 0 0 Z " fill="#FC0000" transform="translate(176,145)"/>
<path d="M0 0 C95.04 0 190.08 0 288 0 C288 21.45 288 42.9 288 65 C251.04 65 214.08 65 176 65 C176 117.14 176 169.28 176 223 C171.83092388 221.95773097 169.43461135 220.51871499 166 218 C165.67 217.34 165.34 216.68 165 216 C165.8353125 216.433125 165.8353125 216.433125 166.6875 216.875 C169.07114743 218.03461227 171.53884039 219.01553616 174 220 C174 168.19 174 116.38 174 63 C176.83709967 62.05430011 178.56132486 61.87636516 181.49882507 61.87974548 C182.42009186 61.87837082 183.34135864 61.87699615 184.2905426 61.87557983 C185.29898727 61.87917511 186.30743195 61.88277039 187.34643555 61.88647461 C188.41001282 61.88632858 189.47359009 61.88618256 190.56939697 61.8860321 C194.09185817 61.88672988 197.61426677 61.89451599 201.13671875 61.90234375 C203.5762377 61.90420841 206.01575703 61.90563209 208.45527649 61.90663147 C214.88161245 61.91045287 221.30792588 61.92027996 227.73425293 61.93133545 C235.4418313 61.94335437 243.1494172 61.94795361 250.85700226 61.95378876 C262.57135052 61.96349188 274.28564932 61.98265112 286 62 C286 42.2 286 22.4 286 2 C192.28 2 98.56 2 2 2 C2 22.13 2 42.26 2 63 C9.74984375 62.91621094 17.4996875 62.83242187 25.484375 62.74609375 C30.38801644 62.69539219 35.29165719 62.64499593 40.1953125 62.59570312 C47.98213151 62.51739882 55.76892733 62.43795175 63.55566406 62.35180664 C69.83201359 62.28244162 76.10839622 62.21811223 82.38483429 62.15730476 C84.78188203 62.13319071 87.17891208 62.10724844 89.5759201 62.07946587 C92.92786392 62.04092442 96.27981116 62.00882713 99.63183594 61.97827148 C100.62733459 61.96532547 101.62283325 61.95237946 102.64849854 61.93904114 C103.56272583 61.93200165 104.47695313 61.92496216 105.41888428 61.91770935 C106.21162624 61.90941321 107.00436821 61.90111708 107.82113266 61.89256954 C110.00637594 62.00031437 111.90267235 62.3943579 114 63 C114.0154612 63.98574005 114.0154612 63.98574005 114.03123474 64.99139404 C114.14084769 71.93671604 114.25528495 78.88194754 114.37231445 85.82714844 C114.41517615 88.40655594 114.45687649 90.98598305 114.49731445 93.56542969 C114.63072675 102.04452203 114.79147623 110.52240333 115 119 C115.0245929 120.01827881 115.04918579 121.03655762 115.07452393 122.08569336 C115.14845841 124.81325939 115.24315375 127.53907906 115.34765625 130.265625 C115.37816322 131.41451202 115.37816322 131.41451202 115.4092865 132.58660889 C115.62498793 137.36449715 116.60755559 141.40914011 118.27513123 145.89276123 C119.03503343 148.10184437 119.50846021 150.2681213 119.9375 152.5625 C120.73878145 156.39010889 122.08557642 159.47225993 123.93359375 162.90234375 C125.11129368 165.21891834 126.02074744 167.56893553 126.9375 170 C129.30608975 176.02324972 132.09971197 181.14290033 136.75 185.6875 C139.19876809 188.20428942 139.70492759 189.55748857 140 193 C140.99 193.33 141.98 193.66 143 194 C143 194.66 143 195.32 143 196 C143.598125 196.061875 144.19625 196.12375 144.8125 196.1875 C147.91786033 197.34091955 148.51915754 199.10562611 150 202 C150.5878125 203.1446875 150.5878125 203.1446875 151.1875 204.3125 C151.455625 204.869375 151.72375 205.42625 152 206 C152.66 206 153.32 206 154 206 C153.67 206.66 153.34 207.32 153 208 C151.33333333 206.33333333 149.66666667 204.66666667 148 203 C146.8553125 201.88625 146.8553125 201.88625 145.6875 200.75 C138.21181566 193.10046254 132.25116309 185.3509337 127 176 C126.65936523 175.4033252 126.31873047 174.80665039 125.96777344 174.19189453 C121.43149486 166.13285212 118.12825169 158.01456572 115.5625 149.125 C115.3154834 148.26970703 115.0684668 147.41441406 114.81396484 146.53320312 C111.8965381 135.7784411 111.8585766 125.11398321 111.90234375 114.0234375 C111.90335083 112.7753833 111.90435791 111.5273291 111.90539551 110.24145508 C111.9105921 105.61929392 111.92455313 100.99714595 111.9375 96.375 C111.958125 86.02125 111.97875 75.6675 112 65 C75.04 65 38.08 65 0 65 C0 43.55 0 22.1 0 0 Z " fill="#CA0E0F" transform="translate(176,145)"/>
<path d="M0 0 C21.45 0 42.9 0 65 0 C65 78.54 65 157.08 65 238 C-19.32124352 238 -19.32124352 238 -31.875 235.5625 C-32.54917969 235.44068359 -33.22335937 235.31886719 -33.91796875 235.19335938 C-38.73895575 234.26104425 -38.73895575 234.26104425 -41 232 C-33.58703553 231.77422443 -27.19036636 232.22846046 -20 234 C7.50543184 237.05615909 35.32782893 235.62605174 63 236 C63 158.78 63 81.56 63 2 C42.87 2 22.74 2 2 2 C2.00523682 7.17486084 2.01047363 12.34972168 2.01586914 17.68139648 C2.03240004 34.73262294 2.04352003 51.7838497 2.05181217 68.83508205 C2.05697562 79.17855169 2.06401924 89.52201374 2.07543945 99.86547852 C2.08538481 108.87741112 2.09185307 117.88933824 2.09408849 126.90127617 C2.09539586 131.67611339 2.0984833 136.45093493 2.10573006 141.22576714 C2.11248793 145.71459913 2.11461744 150.20340889 2.11310768 154.69224548 C2.11338411 156.34469791 2.11539061 157.99715103 2.11920547 159.64959908 C2.1241391 161.89573531 2.12299953 164.14178621 2.12025452 166.38792419 C2.12117631 167.6480152 2.1220981 168.90810621 2.12304783 170.2063818 C2 173 2 173 1 174 C-16.44143075 174.95268319 -16.44143075 174.95268319 -24.140625 171.71484375 C-26.64370028 170.75252699 -29.153682 170.6907071 -31.8046875 170.44921875 C-36.48405382 169.49169717 -40.7489188 167.11772611 -45 165 C-40.05923362 162.52961681 -31.34951075 166.28580213 -26.25 167.8359375 C-24.81607936 168.32521447 -23.3865731 168.82791565 -21.96484375 169.3515625 C-14.73859848 171.7363671 -7.73049575 171.48463362 0 172 C0 115.24 0 58.48 0 0 Z " fill="#BA1011" transform="translate(399,257)"/>
<path d="M0 0 C1.00745897 -0.00260775 2.01491794 -0.00521549 3.05290598 -0.00790226 C4.73321644 -0.00455618 4.73321644 -0.00455618 6.44747257 -0.0011425 C8.21685746 -0.00348249 8.21685746 -0.00348249 10.0219875 -0.00586975 C13.31094173 -0.00918302 16.59983938 -0.00797056 19.88879025 -0.00488353 C23.43008667 -0.00263127 26.97137796 -0.00610819 30.51267338 -0.00886345 C37.45618984 -0.01332215 44.39969552 -0.0123442 51.34321242 -0.00945081 C56.98438214 -0.00719698 62.62554882 -0.00688416 68.26671886 -0.00797462 C69.06808533 -0.00812786 69.86945179 -0.00828109 70.69510208 -0.00843897 C72.32282209 -0.00875868 73.95054209 -0.00908289 75.5782621 -0.00941156 C90.86036575 -0.01226669 106.14246342 -0.00897891 121.4245661 -0.00361119 C134.54939718 0.00085602 147.67421941 0.00008166 160.79905033 -0.00452995 C176.02306437 -0.0098766 191.24707315 -0.01199109 206.47108799 -0.00891769 C208.09329291 -0.00859913 209.71549783 -0.00828475 211.33770275 -0.00797462 C212.13595421 -0.00782035 212.93420566 -0.00766607 213.75664655 -0.00750712 C219.39329969 -0.00664218 225.02994951 -0.00810438 230.66660213 -0.01045418 C237.53263861 -0.01325342 244.39866364 -0.01251132 251.2646988 -0.00717343 C254.77069625 -0.00453797 258.2766746 -0.00352874 261.78267193 -0.00682259 C265.5763859 -0.01033293 269.37006833 -0.00615301 273.16378117 -0.0011425 C274.84074555 -0.00448858 274.84074555 -0.00448858 276.551588 -0.00790226 C277.56165472 -0.00529452 278.57172144 -0.00268677 279.61239624 0 C280.92731408 0.00024353 280.92731408 0.00024353 282.26879591 0.00049198 C284.36911869 0.12584114 284.36911869 0.12584114 286.36911869 1.12584114 C286.41540494 9.43584906 286.45096889 17.74580335 286.47274303 26.0559082 C286.48319213 29.91438911 286.49737169 33.77278199 286.5199976 37.63121223 C286.54168609 41.35296306 286.55367883 45.07462908 286.55887318 48.79643822 C286.56257614 50.21825305 286.56980688 51.64006311 286.5805788 53.06184196 C286.59503988 55.04911228 286.59593515 57.03646745 286.59616947 59.02379036 C286.60061069 60.15630226 286.60505192 61.28881416 286.60962772 62.45564461 C286.36911869 65.12584114 286.36911869 65.12584114 284.36911869 67.12584114 C284.36911869 45.67584114 284.36911869 24.22584114 284.36911869 2.12584114 C189.32911869 2.12584114 94.28911869 2.12584114 -3.63088131 2.12584114 C-3.63088131 23.57584114 -3.63088131 45.02584114 -3.63088131 67.12584114 C33.32911869 67.12584114 70.28911869 67.12584114 108.36911869 67.12584114 C108.80661869 98.25084114 108.80661869 98.25084114 108.93723392 107.98961067 C108.97541286 110.57929631 109.01388659 113.16897762 109.05271244 115.75865364 C109.07742619 117.72403084 109.07742619 117.72403084 109.1026392 119.72911263 C109.23487877 128.23203808 109.67150055 136.65116751 110.36911869 145.12584114 C109.70911869 144.79584114 109.04911869 144.46584114 108.36911869 144.12584114 C107.33608174 139.74843795 107.2475021 135.50143073 107.2555933 131.01890755 C107.25547276 130.32433134 107.25535223 129.62975513 107.25522804 128.91413116 C107.25596925 126.68518842 107.26356103 124.45633126 107.27146244 122.22740364 C107.27293432 120.84353361 107.27395351 119.45966302 107.2745142 118.07579231 C107.27973859 112.96746672 107.29369986 107.85915307 107.30661869 102.75084114 C107.32724369 91.32459114 107.34786869 79.89834114 107.36911869 68.12584114 C70.07911869 68.12584114 32.78911869 68.12584114 -5.63088131 68.12584114 C-5.65150631 57.09146614 -5.67213131 46.05709114 -5.69338131 34.68834114 C-5.70248531 31.19957405 -5.71158932 27.71080696 -5.7209692 24.11631966 C-5.72388804 21.37079596 -5.72643667 18.62527183 -5.72853756 15.87974739 C-5.73115093 15.16173454 -5.73376431 14.44372169 -5.73645687 13.70395088 C-5.74373702 11.59919595 -5.74478864 9.49452272 -5.7444067 7.38975716 C-5.74662731 6.20172997 -5.74884792 5.01370277 -5.75113583 3.78967476 C-5.55115572 -0.64021068 -3.98454009 0.00073809 0 0 Z " fill="#3B0000" transform="translate(179.63088130950928,142.87415885925293)"/>
<path d="M0 0 C21.45 0 42.9 0 65 0 C65.75 16.5625 65.75 16.5625 65.95605469 21.68579102 C66.42845048 31.64374298 68.0945191 40.46311216 71 50 C71.63166504 52.37323604 72.25751859 54.74803414 72.875 57.125 C74.62170465 63.28406298 77.04897484 68.74130597 79.92578125 74.453125 C80.28027344 75.29359375 80.63476562 76.1340625 81 77 C80.67 77.66 80.34 78.32 80 79 C75.07692308 73.70769231 75.07692308 73.70769231 74.6875 70.125 C74.790625 69.42375 74.89375 68.7225 75 68 C74.34 68 73.68 68 73 68 C70.91697784 62.07983176 69.1027452 56.094288 67.375 50.0625 C67.04786011 48.95479248 67.04786011 48.95479248 66.71411133 47.82470703 C62.41059788 32.56755599 64 16.71005217 64 1 C43.54 1 23.08 1 2 1 C2 78.22 2 155.44 2 235 C22.13 235 42.26 235 63 235 C62.98839844 230.04226563 62.97679687 225.08453125 62.96484375 219.9765625 C62.95973596 216.84114453 62.95492211 213.70573167 62.95117188 210.5703125 C62.94518741 205.59048399 62.93809762 200.61067382 62.92456055 195.63085938 C62.91371816 191.61734185 62.90772028 187.60384399 62.90512276 183.59031296 C62.90327095 182.05686509 62.899655 180.52341832 62.89426994 178.98997879 C62.8870416 176.84697368 62.88600982 174.70405044 62.88647461 172.56103516 C62.884254 171.33969879 62.88203339 170.11836243 62.87974548 168.86001587 C63 166 63 166 64 164 C66.0625 163.375 66.0625 163.375 68 163 C68.433125 163.763125 68.86625 164.52625 69.3125 165.3125 C70.83752358 167.96286253 70.83752358 167.96286253 72.6875 169.6875 C73.120625 170.120625 73.55375 170.55375 74 171 C74 171.66 74 172.32 74 173 C75.98 173.66 77.96 174.32 80 175 C80 175.99 80 176.98 80 178 C80.66 178 81.32 178 82 178 C82 178.66 82 179.32 82 180 C82.66 180 83.32 180 84 180 C85.625 182.5 85.625 182.5 87 185 C79.77153495 181.66256865 73.71268685 175.41023489 68.8125 169.25 C67.19690923 166.92512612 67.19690923 166.92512612 65 166 C65 189.43 65 212.86 65 237 C43.55 237 22.1 237 0 237 C0 158.79 0 80.58 0 0 Z " fill="#A50F11" transform="translate(176,258)"/>
<path d="M0 0 C22.44 0 44.88 0 68 0 C69.4328573 2.8657146 69.18323377 5.38948768 69.24609375 8.58984375 C69.27908911 9.94596861 69.31229961 11.30208825 69.34570312 12.65820312 C69.39265949 14.78389082 69.43697664 16.90956691 69.47680664 19.03540039 C68.75619832 32.95170843 68.75619832 32.95170843 73 45 C73.04092937 47.33297433 73.04241723 49.66705225 73 52 C64.97565637 36.88922303 67 18.36442607 67 2 C45.55 2 24.1 2 2 2 C2 80.21 2 158.42 2 239 C23.45 239 44.9 239 67 239 C67 215.57 67 192.14 67 168 C67.99 168.33 68.98 168.66 70 169 C70 169.66 70 170.32 70 171 C69.34 171 68.68 171 68 171 C68.03029297 171.95326172 68.06058594 172.90652344 68.09179688 173.88867188 C68.63868359 191.34115648 69.10275026 208.78799932 69.125 226.25 C69.12749756 226.94552979 69.12999512 227.64105957 69.13256836 228.35766602 C69.13836809 230.30614371 69.13582097 232.25464099 69.1328125 234.203125 C69.13168457 235.30301758 69.13055664 236.40291016 69.12939453 237.53613281 C69 240 69 240 68 241 C65.94987154 241.09939626 63.89628608 241.12799553 61.84375 241.12939453 C60.52568359 241.13254669 59.20761719 241.13569885 57.84960938 241.13894653 C56.39973925 241.13715675 54.94986942 241.1351058 53.5 241.1328125 C52.02408838 241.13348557 50.54817687 241.13445563 49.07226562 241.13571167 C45.97524971 241.13718848 42.87826258 241.13503464 39.78125 241.13037109 C35.80291451 241.1246738 31.82464648 241.1279529 27.84631348 241.13394356 C24.79752083 241.13754963 21.74874429 241.13641037 18.69995117 241.13381577 C17.23266594 241.13314662 15.76537926 241.13397447 14.2980957 241.13629532 C12.25081407 241.13882257 10.20352734 241.1342906 8.15625 241.12939453 C6.40538086 241.12820114 6.40538086 241.12820114 4.61914062 241.12698364 C2 241 2 241 1 240 C0.88952476 236.91578286 0.84502307 233.85348083 0.84178162 230.76841736 C0.83684364 229.78751037 0.83190566 228.80660338 0.82681805 227.79597193 C0.8113606 224.4823913 0.80306023 221.16883016 0.79467773 217.85522461 C0.78510568 215.49057339 0.77509601 213.1259239 0.76467896 210.76127625 C0.74037294 204.98953195 0.72065716 199.2177849 0.70292621 193.44601696 C0.68205744 186.73249278 0.65558816 180.01899431 0.62875474 173.30549175 C0.58104762 161.33217327 0.53779193 149.35884299 0.49731445 137.38549805 C0.45797538 125.75169963 0.41655299 114.11791172 0.37231445 102.48413086 C0.36959018 101.76751464 0.36686591 101.05089843 0.36405908 100.31256657 C0.35037987 96.71765997 0.33665954 93.12275353 0.32291877 89.52784717 C0.20890499 59.68525226 0.10292276 29.84263584 0 0 Z " fill="#3E0001" transform="translate(174,256)"/>
<path d="M0 0 C0.33 0 0.66 0 1 0 C1.02278995 30.30276976 1.04049796 60.60553864 1.05106533 90.908315 C1.05231611 94.48208957 1.05361042 98.05586413 1.05493164 101.62963867 C1.05519395 102.34114268 1.05545626 103.05264668 1.05572652 103.78571142 C1.0600833 115.32132168 1.06797089 126.85692699 1.0771528 138.39253431 C1.08648911 150.22037862 1.09205556 162.04822033 1.09408849 173.87606817 C1.09534006 180.52326311 1.09848474 187.1704488 1.10573006 193.8176403 C1.1124861 200.06621402 1.11461781 206.31477175 1.11310768 212.56334877 C1.1133842 214.86404889 1.11539177 217.1647495 1.11920547 219.46544647 C1.12413624 222.59176605 1.12300058 225.71802427 1.12025452 228.84434509 C1.12316736 229.76747795 1.1260802 230.6906108 1.12908131 231.64171737 C1.11412121 237.88587879 1.11412121 237.88587879 0 239 C-2.09064344 239.11016427 -4.18505485 239.14914479 -6.27856445 239.16113281 C-6.93599136 239.16609772 -7.59341827 239.17106262 -8.27076721 239.17617798 C-10.46828247 239.19088679 -12.66572459 239.19763017 -14.86328125 239.203125 C-15.62176046 239.20595238 -16.38023968 239.20877975 -17.16170311 239.21169281 C-21.2074964 239.22675127 -25.2532537 239.23592738 -29.29907227 239.24023438 C-32.59313442 239.24455299 -35.88692483 239.25817045 -39.1809082 239.28125 C-55.56955524 239.39372539 -71.84950387 239.35170616 -88.16796875 237.671875 C-89.91561272 237.49679413 -89.91561272 237.49679413 -91.69856262 237.31817627 C-100.28868361 236.3068096 -100.28868361 236.3068096 -103 233 C-101.24967156 233.14183696 -99.49974466 233.28863429 -97.75 233.4375 C-96.28820312 233.55931641 -96.28820312 233.55931641 -94.796875 233.68359375 C-92 234 -92 234 -88 235 C-58.716231 236.83023556 -29.33807857 236.59252669 0 237 C0 158.79 0 80.58 0 0 Z " fill="#490000" transform="translate(464,258)"/>
<path d="M0 0 C0.33 0 0.66 0 1 0 C1 77.22 1 154.44 1 234 C21.13 234 41.26 234 62 234 C61.98839844 229.04226563 61.97679687 224.08453125 61.96484375 218.9765625 C61.95973596 215.84114453 61.95492211 212.70573167 61.95117188 209.5703125 C61.94518741 204.59048399 61.93809762 199.61067382 61.92456055 194.63085938 C61.91371816 190.61734185 61.90772028 186.60384399 61.90512276 182.59031296 C61.90327095 181.05686509 61.899655 179.52341832 61.89426994 177.98997879 C61.8870416 175.84697368 61.88600982 173.70405044 61.88647461 171.56103516 C61.884254 170.33969879 61.88203339 169.11836243 61.87974548 167.86001587 C62 165 62 165 63 163 C65.0625 162.375 65.0625 162.375 67 162 C67.433125 162.763125 67.86625 163.52625 68.3125 164.3125 C69.83752358 166.96286253 69.83752358 166.96286253 71.6875 168.6875 C72.120625 169.120625 72.55375 169.55375 73 170 C73 170.66 73 171.32 73 172 C74.98 172.66 76.96 173.32 79 174 C79 174.99 79 175.98 79 177 C79.66 177 80.32 177 81 177 C81 177.66 81 178.32 81 179 C81.66 179 82.32 179 83 179 C84.625 181.5 84.625 181.5 86 184 C78.77153495 180.66256865 72.71268685 174.41023489 67.8125 168.25 C66.19690923 165.92512612 66.19690923 165.92512612 64 165 C63.67 188.1 63.34 211.2 63 235 C42.21 235 21.42 235 0 235 C0 157.45 0 79.9 0 0 Z " fill="#DC0E10" transform="translate(177,259)"/>
<path d="M0 0 C2.12565505 3.18848257 2.2579599 4.04033611 2.30297852 7.70483398 C2.31962051 8.66111191 2.33626251 9.61738983 2.35340881 10.60264587 C2.36182297 11.63998367 2.37023712 12.67732147 2.37890625 13.74609375 C2.39590073 14.82641373 2.4128952 15.9067337 2.43040466 17.01979065 C2.48359026 20.49230002 2.52372447 23.96480232 2.5625 27.4375 C2.79095042 46.27130723 2.79095042 46.27130723 3.33984375 65.09765625 C3.3606752 65.87378769 3.38150665 66.64991913 3.40296936 67.4495697 C3.62102513 72.27954291 4.58666176 76.36668995 6.27540588 80.89866638 C7.03642731 83.10563974 7.50885653 85.269717 7.9375 87.5625 C8.73878145 91.39010889 10.08557642 94.47225993 11.93359375 97.90234375 C13.11129368 100.21891834 14.02074744 102.56893553 14.9375 105 C17.30608975 111.02324972 20.09971197 116.14290033 24.75 120.6875 C27.19876809 123.20428942 27.70492759 124.55748857 28 128 C28.99 128.33 29.98 128.66 31 129 C31 129.66 31 130.32 31 131 C31.598125 131.061875 32.19625 131.12375 32.8125 131.1875 C35.91786033 132.34091955 36.51915754 134.10562611 38 137 C38.5878125 138.1446875 38.5878125 138.1446875 39.1875 139.3125 C39.455625 139.869375 39.72375 140.42625 40 141 C40.66 141 41.32 141 42 141 C41.67 141.66 41.34 142.32 41 143 C39.33333333 141.33333333 37.66666667 139.66666667 36 138 C34.8553125 136.88625 34.8553125 136.88625 33.6875 135.75 C26.21181566 128.10046254 20.25116309 120.3509337 15 111 C14.65936523 110.4033252 14.31873047 109.80665039 13.96777344 109.19189453 C9.43149486 101.13285212 6.12825169 93.01456572 3.5625 84.125 C3.3154834 83.26970703 3.0684668 82.41441406 2.81396484 81.53320312 C-0.10337515 70.77876088 -0.14097941 60.11324509 -0.09765625 49.0234375 C-0.09578687 47.60283458 -0.09436543 46.182231 -0.09336853 44.7616272 C-0.08958425 41.05619468 -0.07978982 37.35080252 -0.06866455 33.64538574 C-0.05836159 29.85083563 -0.05385204 26.05627888 -0.04882812 22.26171875 C-0.03816311 14.84112761 -0.02113699 7.4205695 0 0 Z " fill="#CC0F11" transform="translate(288,210)"/>
<path d="M0 0 C0.33 0 0.66 0 1 0 C1 56.43 1 112.86 1 171 C-15.9138756 171 -15.9138756 171 -21.375 169.5625 C-22.43460937 169.29566406 -23.49421875 169.02882813 -24.5859375 168.75390625 C-27 168 -27 168 -28 167 C-30.09875842 166.55689551 -32.20439825 166.14627705 -34.3125 165.75 C-41.30342029 164.30879489 -47.53844658 161.99408977 -54 159 C-50.40665934 157.69483259 -48.60769836 158.31301965 -45.1875 159.875 C-41.01719647 161.67020463 -37.49018064 162.52232121 -33 163 C-32.67 163.33 -32.34 163.66 -32 164 C-30.4221875 164.2165625 -30.4221875 164.2165625 -28.8125 164.4375 C-25.28494504 164.95795893 -22.34774703 165.81433959 -19 167 C-12.35246686 169.26016127 -7.5394142 169.37171548 0 170 C0 113.9 0 57.8 0 0 Z " fill="#3E0000" transform="translate(398,258)"/>
<path d="M0 0 C20.79 0 41.58 0 63 0 C63.75 16.5625 63.75 16.5625 63.95605469 21.68579102 C64.42845048 31.64374298 66.0945191 40.46311216 69 50 C69.63166504 52.37323604 70.25751859 54.74803414 70.875 57.125 C72.62170465 63.28406298 75.04897484 68.74130597 77.92578125 74.453125 C78.28027344 75.29359375 78.63476562 76.1340625 79 77 C78.67 77.66 78.34 78.32 78 79 C73.07692308 73.70769231 73.07692308 73.70769231 72.6875 70.125 C72.790625 69.42375 72.89375 68.7225 73 68 C72.34 68 71.68 68 71 68 C68.91697784 62.07983176 67.1027452 56.094288 65.375 50.0625 C65.04786011 48.95479248 65.04786011 48.95479248 64.71411133 47.82470703 C60.41059788 32.56755599 62 16.71005217 62 1 C41.54 1 21.08 1 0 1 C0 0.67 0 0.34 0 0 Z " fill="#BE0F12" transform="translate(178,258)"/>
<path d="M0 0 C1.75032844 0.14183696 3.50025534 0.28863429 5.25 0.4375 C6.71179688 0.55931641 6.71179688 0.55931641 8.203125 0.68359375 C11 1 11 1 12.72766113 1.48500061 C24.11974322 4.06688459 36.89597282 3.1381434 48.53125 3.09765625 C50.14505977 3.09578453 51.75887012 3.0943642 53.37268066 3.09336853 C57.56135711 3.08960264 61.74999728 3.0798252 65.93865967 3.06866455 C70.23644521 3.05832078 74.53423677 3.05384352 78.83203125 3.04882812 C87.22137057 3.03819578 95.61068074 3.0211934 104 3 C103.67 3.99 103.34 4.98 103 6 C94.09598634 6.07062864 85.19207424 6.123367 76.28783798 6.15543652 C72.14979664 6.17085595 68.01195173 6.19163775 63.87402344 6.22631836 C47.465039 6.35998284 31.1675584 6.36079787 14.828125 4.67578125 C13.66327576 4.55881393 12.49842651 4.44184662 11.29827881 4.32133484 C2.71254509 3.30760853 2.71254509 3.30760853 0 0 Z " fill="#360000" transform="translate(361,491)"/>
<path d="M0 0 C0.33 0 0.66 0 1 0 C1 52.14 1 104.28 1 158 C-3.16907612 156.95773097 -5.56538865 155.51871499 -9 153 C-9.33 152.34 -9.66 151.68 -10 151 C-9.443125 151.28875 -8.88625 151.5775 -8.3125 151.875 C-5.92885257 153.03461227 -3.46115961 154.01553616 -1 155 C-0.67 103.85 -0.34 52.7 0 0 Z " fill="#BB1415" transform="translate(351,210)"/>
<path d="M0 0 C6.47825635 -0.1973073 12.45205634 -0.15367654 18.74488831 1.46754456 C27.55776307 3.54835641 36.75400412 3.21259521 45.75390625 3.31640625 C47.26562516 3.33701621 48.77733883 3.35801362 50.28904724 3.37937927 C54.23938719 3.43418312 58.18977549 3.48377355 62.14019775 3.53222656 C66.18270087 3.58274894 70.22513507 3.63827343 74.26757812 3.69335938 C82.17832689 3.80042986 90.08913388 3.90198503 98 4 C98 4.33 98 4.66 98 5 C87.8456717 5.0699755 77.69140218 5.12305001 67.53688049 5.15543652 C62.82007234 5.17099221 58.10343096 5.19204232 53.38671875 5.22631836 C48.821995 5.2592766 44.25743013 5.27692858 39.69259644 5.28463173 C37.96415715 5.29011063 36.23572505 5.30080614 34.50735474 5.31719017 C23.43682881 5.41781456 12.73866758 4.98631547 2 2 C1.34 1.34 0.68 0.68 0 0 Z " fill="#DC0C0F" transform="translate(358,489)"/>
<path d="M0 0 C1.9375 0.375 1.9375 0.375 4 1 C4.33 1.66 4.66 2.32 5 3 C7.52733235 3.65555119 7.52733235 3.65555119 10 4 C10.061875 4.928125 10.061875 4.928125 10.125 5.875 C10.83157375 8.30110582 10.83157375 8.30110582 13.6875 9.125 C14.780625 9.41375 15.87375 9.7025 17 10 C20.3125 10.875 20.3125 10.875 23 12 C23.10957031 12.62390625 23.21914063 13.2478125 23.33203125 13.890625 C23.82869424 16.24190197 23.82869424 16.24190197 26.3359375 17.4921875 C27.33882813 17.94851563 28.34171875 18.40484375 29.375 18.875 C35.38397366 21.69936172 41.1961496 24.77817753 47 28 C47 28.66 47 29.32 47 30 C41.48275783 28.44385477 36.91104199 25.87355676 32 23 C30.88238281 22.35933594 29.76476562 21.71867187 28.61328125 21.05859375 C21.73233792 17.06465093 15.11855528 12.81278161 8.6875 8.125 C8.04731934 7.66077637 7.40713867 7.19655273 6.74755859 6.71826172 C3.93466146 4.6294011 1.96160624 2.94240936 0 0 Z " fill="#B31011" transform="translate(263,443)"/>
<path d="M0 0 C6.38806004 1.59701501 10.55118783 6.29696999 15 11 C15.33 11.66 15.66 12.32 16 13 C13.03 12.505 13.03 12.505 10 12 C10 11.01 10 10.02 10 9 C7.36 9 4.72 9 2 9 C1.67 18.24 1.34 27.48 1 37 C0.67 37 0.34 37 0 37 C0 24.79 0 12.58 0 0 Z " fill="#170000" transform="translate(242,427)"/>
<path d="M0 0 C4.9193401 2.41144122 9.75166702 4.94042937 14.5625 7.5625 C18.9873612 9.95569306 23.34029192 12.11819482 28 14 C29.43784561 14.66592094 30.87531816 15.33264774 32.3125 16 C37.07816466 18.13633243 41.97180615 19.61435994 47 21 C42.30536902 22.49422792 38.64071259 21.20112561 34 20 C33.30519531 19.84273438 32.61039062 19.68546875 31.89453125 19.5234375 C30 19.0625 30 19.0625 27 18 C26.67 17.01 26.34 16.02 26 15 C23.67108904 13.97299556 23.67108904 13.97299556 20.9375 13.3125 C20.01839844 13.06113281 19.09929687 12.80976563 18.15234375 12.55078125 C17.44207031 12.36902344 16.73179687 12.18726563 16 12 C16 11.34 16 10.68 16 10 C15.45730469 9.88269531 14.91460937 9.76539063 14.35546875 9.64453125 C11.55409409 8.87798595 8.97955705 7.8376461 6.3125 6.6875 C5.33925781 6.27886719 4.36601562 5.87023437 3.36328125 5.44921875 C1 4 1 4 0.16796875 1.83203125 C0.11253906 1.22746094 0.05710937 0.62289063 0 0 Z " fill="#470102" transform="translate(287,461)"/>
<path d="M0 0 C0.99 0.33 1.98 0.66 3 1 C3 1.66 3 2.32 3 3 C2.34 3 1.68 3 1 3 C1 25.44 1 47.88 1 71 C0.67 71 0.34 71 0 71 C0 47.57 0 24.14 0 0 Z " fill="#620000" transform="translate(241,424)"/>
<path d="M0 0 C16.52581989 2.85906823 16.52581989 2.85906823 23.10546875 5.3515625 C27.8989913 6.99223207 32.78906071 7.26926574 37.8125 7.5625 C38.85180664 7.62727539 38.85180664 7.62727539 39.91210938 7.69335938 C41.60788686 7.79861453 43.30392052 7.89972863 45 8 C45 8.33 45 8.66 45 9 C41.97892098 9.0543251 38.95883472 9.09382927 35.9375 9.125 C35.08994141 9.14175781 34.24238281 9.15851563 33.36914062 9.17578125 C28.13290875 9.21621547 23.97222198 8.61581618 19 7 C17.7625 6.896875 16.525 6.79375 15.25 6.6875 C9.71572232 6.12099914 4.91922711 3.45057086 0 1 C0 0.67 0 0.34 0 0 Z " fill="#C10F13" transform="translate(354,421)"/>
<path d="M0 0 C3.09697874 2.66131812 4.65467106 5.86480155 6.5625 9.4375 C10.56419747 16.72986536 15.46342721 22.80539192 21 29 C20.67 29.66 20.34 30.32 20 31 C18.62437146 29.71034824 17.29233607 28.37310707 16 27 C16 26.34 16 25.68 16 25 C15.01 24.67 14.02 24.34 13 24 C12.31513275 22.67592331 11.65129797 21.34090759 11 20 C10.39542969 19.41863281 9.79085938 18.83726562 9.16796875 18.23828125 C6.69439598 15.6844845 5.04392702 13.06654191 3.25 10 C2.63640625 8.96875 2.0228125 7.9375 1.390625 6.875 C0 4 0 4 0 0 Z " fill="#CB1014" transform="translate(257,337)"/>
<path d="M0 0 C3.36179774 1.44077046 5.59156268 3.24750021 8 6 C8 6.66 8 7.32 8 8 C9.98 8.66 11.96 9.32 14 10 C14 10.99 14 11.98 14 13 C14.66 13 15.32 13 16 13 C16 13.66 16 14.32 16 15 C16.66 15 17.32 15 18 15 C19.625 17.5 19.625 17.5 21 20 C12.44906301 16.05197439 5.77133586 8.25539366 0 1 C0 0.67 0 0.34 0 0 Z " fill="#C30E13" transform="translate(242,423)"/>
<path d="M0 0 C1.9375 0.375 1.9375 0.375 4 1 C4.33 1.66 4.66 2.32 5 3 C7.52733235 3.65555119 7.52733235 3.65555119 10 4 C10.061875 4.928125 10.061875 4.928125 10.125 5.875 C10.83157375 8.30110582 10.83157375 8.30110582 13.6875 9.125 C14.780625 9.41375 15.87375 9.7025 17 10 C19 10.66666667 21 11.33333333 23 12 C23 12.66 23 13.32 23 14 C17.78838161 14.68786889 15.25951885 13.23027143 11.23828125 10.23632812 C10.58214844 9.72521484 9.92601562 9.21410156 9.25 8.6875 C8.24259766 7.93823242 8.24259766 7.93823242 7.21484375 7.17382812 C4.19314098 4.88787061 2.13181649 3.19772474 0 0 Z " fill="#B80E13" transform="translate(263,443)"/>
<path d="M0 0 C1.32 0.33 2.64 0.66 4 1 C4 1.99 4 2.98 4 4 C6.64 4.33 9.28 4.66 12 5 C12 5.66 12 6.32 12 7 C12.66 7.33 13.32 7.66 14 8 C6.24889248 6.80752192 -0.87911773 5.33317893 -8 2 C-4.94736336 1.01879536 -3.05263664 1.01879536 0 2 C0 1.34 0 0.68 0 0 Z " fill="#CE0C0F" transform="translate(342,481)"/>
<path d="M0 0 C18.16788712 -0.55333666 18.16788712 -0.55333666 22.74609375 3.57421875 C23.15988281 4.04472656 23.57367188 4.51523437 24 5 C18.47203433 4.53525952 12.98399259 3.90364379 7.5 3.0625 C6.4996875 2.90910156 5.499375 2.75570313 4.46875 2.59765625 C2 2 2 2 0 0 Z " fill="#AF0D11" transform="translate(358,489)"/>
<path d="M0 0 C8.73089879 2.13397899 17.42846005 4.28018444 26 7 C26 7.33 26 7.66 26 8 C20.39 7.67 14.78 7.34 9 7 C8.67 6.01 8.34 5.02 8 4 C6.12612784 3.19787372 6.12612784 3.19787372 3.9375 2.8125 C3.20402344 2.65394531 2.47054688 2.49539063 1.71484375 2.33203125 C1.14894531 2.22246094 0.58304687 2.11289062 0 2 C0 1.34 0 0.68 0 0 Z " fill="#3E0102" transform="translate(334,483)"/>
<path d="M0 0 C3.88192126 3.76774711 7.79531881 7.62797789 11 12 C11 12.66 11 13.32 11 14 C11.556875 14.226875 12.11375 14.45375 12.6875 14.6875 C16.19959577 16.68085165 19.18059875 19.36119749 21 23 C19.0625 22.6875 19.0625 22.6875 17 22 C16.67 21.01 16.34 20.02 16 19 C15.236875 18.731875 14.47375 18.46375 13.6875 18.1875 C10.71810875 16.8754434 9.81478638 15.59189456 8.1796875 12.85546875 C6.17197884 9.69764883 3.7427728 6.85871934 1.390625 3.953125 C0 2 0 2 0 0 Z " fill="#450202" transform="translate(309,331)"/>
<path d="M0 0 C6.88411391 3.30967015 13.43279372 7.10345761 20 11 C19.67 11.66 19.34 12.32 19 13 C18.01 12.67 17.02 12.34 16 12 C16 11.34 16 10.68 16 10 C15.45730469 9.88269531 14.91460937 9.76539063 14.35546875 9.64453125 C11.55409409 8.87798595 8.97955705 7.8376461 6.3125 6.6875 C5.33925781 6.27886719 4.36601562 5.87023437 3.36328125 5.44921875 C1 4 1 4 0.16796875 1.83203125 C0.11253906 1.22746094 0.05710937 0.62289063 0 0 Z " fill="#2A0000" transform="translate(287,461)"/>
<path d="M0 0 C0.66 0 1.32 0 2 0 C2.928125 1.175625 2.928125 1.175625 3.875 2.375 C5.71548374 5.03009726 5.71548374 5.03009726 7.91015625 5.921875 C10.41531698 7.21425699 11.75031425 8.72632339 13.5625 10.875 C14.14128906 11.55304688 14.72007812 12.23109375 15.31640625 12.9296875 C16.93211201 14.91651825 18.4799399 16.93937141 20 19 C16.993182 17.66000502 15.00237391 16.20154709 12.75 13.8125 C9.54744763 10.49210479 6.15636977 7.51530166 2.6015625 4.578125 C1 3 1 3 0 0 Z " fill="#4E0202" transform="translate(284,373)"/>
<path d="M0 0 C1.73152958 1.07955259 3.46011684 2.16382512 5.1875 3.25 C6.15042969 3.85328125 7.11335938 4.4565625 8.10546875 5.078125 C11.68229454 7.45302148 14.96297231 9.96297231 18 13 C16.35 13 14.7 13 13 13 C12.67 12.34 12.34 11.68 12 11 C11.21625 10.690625 10.4325 10.38125 9.625 10.0625 C6.98938758 8.9957045 5.91904909 8.00627859 4 6 C3.01 5.67 2.02 5.34 1 5 C0.67 3.35 0.34 1.7 0 0 Z " fill="#360101" transform="translate(330,354)"/>
<path d="M0 0 C2.97 0 5.94 0 9 0 C9 9.57 9 19.14 9 29 C8.67 29 8.34 29 8 29 C8 20.42 8 11.84 8 3 C7.34 3 6.68 3 6 3 C6 2.34 6 1.68 6 1 C4.02 1 2.04 1 0 1 C0 0.67 0 0.34 0 0 Z " fill="#EB090A" transform="translate(231,259)"/>
<path d="M0 0 C0.66 0 1.32 0 2 0 C2.39832031 0.78246094 2.79664063 1.56492187 3.20703125 2.37109375 C3.73683594 3.38300781 4.26664062 4.39492188 4.8125 5.4375 C5.33457031 6.44683594 5.85664063 7.45617187 6.39453125 8.49609375 C7.81418484 11.28691218 7.81418484 11.28691218 11 12 C11.33 14.31 11.66 16.62 12 19 C7.87651285 15.27533026 5.52545661 11.69888161 3.1875 6.6875 C2.87619141 6.04232422 2.56488281 5.39714844 2.24414062 4.73242188 C1.48676288 3.15940656 0.74203942 1.58030874 0 0 Z " fill="#360001" transform="translate(258,337)"/>
<path d="M0 0 C2.76573844 2.3875178 3.82235464 4.65335548 5.0625 8.0625 C6.44523355 11.89193066 6.44523355 11.89193066 9 15 C9.125 18.125 9.125 18.125 9 21 C4.08874855 16.08874855 1.80262832 8.58232463 0 2 C0 1.34 0 0.68 0 0 Z " fill="#350101" transform="translate(249,316)"/>
<path d="M0 0 C3.96 1.98 7.92 3.96 12 6 C12 6.66 12 7.32 12 8 C12.66 8.33 13.32 8.66 14 9 C10.44219804 8.39009109 7.3171411 7.4216319 4 6 C4 5.34 4 4.68 4 4 C2.68 4 1.36 4 0 4 C0 2.68 0 1.36 0 0 Z " fill="#CD0F11" transform="translate(312,399)"/>
<path d="M0 0 C0.50789063 0.38671875 1.01578125 0.7734375 1.5390625 1.171875 C4.80591668 3.6434276 8.06163502 6.08332079 11.5 8.3125 C12.7375 9.1478125 12.7375 9.1478125 14 10 C14 10.33 14 10.66 14 11 C11.69 10.67 9.38 10.34 7 10 C6.87625 9.071875 6.87625 9.071875 6.75 8.125 C5.76174558 5.32494581 4.59640015 5.25886068 2 4 C0.87109375 1.9375 0.87109375 1.9375 0 0 Z " fill="#D30D0F" transform="translate(298,388)"/>
<path d="M0 0 C5.24972347 4.10037573 9.20962911 8.52964787 13 14 C9.82403153 13.40912215 7.63842071 12.78548239 5.55859375 10.2265625 C3.4972272 6.91606935 1.72436578 3.49575972 0 0 Z " fill="#C50D14" transform="translate(278,368)"/>
<path d="M0 0 C3.66172475 0.62678171 6.8818995 1.64451846 10.3125 3.0625 C11.19550781 3.42472656 12.07851563 3.78695313 12.98828125 4.16015625 C13.65214844 4.43730469 14.31601562 4.71445312 15 5 C15 5.33 15 5.66 15 6 C12.69 6 10.38 6 8 6 C8 5.34 8 4.68 8 4 C6.35 4 4.7 4 3 4 C2.67 3.01 2.34 2.02 2 1 C1.34 0.67 0.68 0.34 0 0 Z " fill="#C90F0C" transform="translate(339,415)"/>
<path d="M0 0 C0.66 0 1.32 0 2 0 C5.44419134 9.41002278 5.44419134 9.41002278 5 14 C1.34133706 9.67612562 0 5.65076098 0 0 Z " fill="#D50E12" transform="translate(290,284)"/>
<path d="M0 0 C0.66 0 1.32 0 2 0 C3.5078125 1.75 3.5078125 1.75 5.125 4 C5.66382813 4.7425 6.20265625 5.485 6.7578125 6.25 C7.16773438 6.8275 7.57765625 7.405 8 8 C7.01 8.495 7.01 8.495 6 9 C5.01 7.68 4.02 6.36 3 5 C1.68 5.33 0.36 5.66 -1 6 C-1.042721 4.33388095 -1.04063832 2.66617115 -1 1 C-0.67 0.67 -0.34 0.34 0 0 Z " fill="#EF0808" transform="translate(271,362)"/>
<path d="M0 0 C0 2.31 0 4.62 0 7 C-1.98 6.34 -3.96 5.68 -6 5 C-6 4.01 -6 3.02 -6 2 C-1.125 0 -1.125 0 0 0 Z " fill="#F20504" transform="translate(350,358)"/>
<path d="M0 0 C2 3 2 3 2 6 C2.66 6 3.32 6 4 6 C4.33 9.96 4.66 13.92 5 18 C3.15963319 15.23944978 2.31655886 13.25401883 1.375 10.125 C1.11460937 9.28195312 0.85421875 8.43890625 0.5859375 7.5703125 C-0.00963022 4.95775542 -0.10525251 2.66958629 0 0 Z " fill="#D20D10" transform="translate(243,302)"/>
<path d="M0 0 C1.98 0 3.96 0 6 0 C6 0.99 6 1.98 6 3 C6.66 3 7.32 3 8 3 C9.625 5.5 9.625 5.5 11 8 C6.99698968 6.23867546 3.3971023 3.73867517 0 1 C0 0.67 0 0.34 0 0 Z " fill="#420103" transform="translate(304,392)"/>
<path d="M0 0 C5.41342681 1.14514798 7.9342948 2.34012809 11 7 C10.01 7.495 10.01 7.495 9 8 C7.68388323 7.04663979 6.37221039 6.08714226 5.0625 5.125 C4.33160156 4.59132813 3.60070312 4.05765625 2.84765625 3.5078125 C1 2 1 2 0 0 Z " fill="#BD0E13" transform="translate(330,353)"/>
<path d="M0 0 C1.60517097 0.08733576 3.20921662 0.19552224 4.8125 0.3125 C6.15248047 0.39951172 6.15248047 0.39951172 7.51953125 0.48828125 C10.30604 1.06313581 11.24135754 1.8206856 13 4 C11 5 11 5 8.3984375 4.22265625 C6.90183594 3.64837891 6.90183594 3.64837891 5.375 3.0625 C4.37210937 2.68222656 3.36921875 2.30195313 2.3359375 1.91015625 C1.56507813 1.60980469 0.79421875 1.30945313 0 1 C0 0.67 0 0.34 0 0 Z " fill="#C30E14" transform="translate(320,477)"/>
<path d="M0 0 C3.91939465 3.80411834 7.49102731 7.81576108 11 12 C10.67 12.66 10.34 13.32 10 14 C8.62437146 12.71034824 7.29233607 11.37310707 6 10 C6 9.34 6 8.68 6 8 C5.01 7.67 4.02 7.34 3 7 C0 2.66666667 0 2.66666667 0 0 Z " fill="#A91011" transform="translate(267,354)"/>
<path d="M0 0 C2.94721162 2.74395564 5.19168608 5.38337216 7 9 C6.67 9.66 6.34 10.32 6 11 C3.72028081 8.82883887 1.69395913 6.66193578 0 4 C0 2.68 0 1.36 0 0 Z " fill="#530104" transform="translate(302,320)"/>
<path d="M0 0 C3.79062273 4.82442893 5.28418033 7.74803275 5 14 C2.81385576 11.81385576 2.31743465 10.46120051 1.375 7.5625 C1.11460937 6.78003906 0.85421875 5.99757813 0.5859375 5.19140625 C0 3 0 3 0 0 Z " fill="#B41112" transform="translate(293,296)"/>
<path d="M0 0 C4.31320068 1.75722991 7.9031084 4.8062168 10 9 C7.03 8.505 7.03 8.505 4 8 C3.67 6.35 3.34 4.7 3 3 C2.01 2.67 1.02 2.34 0 2 C0 1.34 0 0.68 0 0 Z " fill="#420102" transform="translate(248,431)"/>
<path d="M0 0 C1.46313772 0.76167457 2.92036661 1.53470707 4.375 2.3125 C5.18710937 2.74175781 5.99921875 3.17101562 6.8359375 3.61328125 C9 5 9 5 11 8 C7.90694578 7.39096941 5.80360238 6.40131197 3.25 4.5625 C2.63640625 4.13066406 2.0228125 3.69882812 1.390625 3.25390625 C0.70226562 2.63322266 0.70226562 2.63322266 0 2 C0 1.34 0 0.68 0 0 Z " fill="#370000" transform="translate(266,447)"/>
<path d="M0 0 C1.41569064 -0.08167446 2.83276805 -0.13949698 4.25 -0.1875 C5.43335938 -0.23970703 5.43335938 -0.23970703 6.640625 -0.29296875 C9.51712968 0.06421312 10.84576769 1.11751718 13 3 C11.39504433 2.88557539 9.79101881 2.75805306 8.1875 2.625 C7.29417969 2.55539062 6.40085937 2.48578125 5.48046875 2.4140625 C3 2 3 2 0 0 Z " fill="#5C0205" transform="translate(376,426)"/>
<path d="M0 0 C2.61500768 2.36595933 4.38999603 4.86049226 6 8 C5.67 8.66 5.34 9.32 5 10 C2.9754262 8.06745228 1.57894208 6.36841312 0 4 C0 2.68 0 1.36 0 0 Z " fill="#B10E12" transform="translate(257,337)"/>
<path d="M0 0 C3.96 1.98 3.96 1.98 8 4 C8 4.33 8 4.66 8 5 C6.02 5 4.04 5 2 5 C1.34 3.35 0.68 1.7 0 0 Z " fill="#3A0001" transform="translate(287,461)"/>
<path d="M0 0 C2.97 0.99 5.94 1.98 9 3 C9 3.66 9 4.32 9 5 C6.1875 5.3125 6.1875 5.3125 3 5 C1.125 2.5 1.125 2.5 0 0 Z " fill="#D70E0C" transform="translate(277,452)"/>
<path d="M0 0 C3.36720387 1.39332574 4.9859524 2.9789286 7 6 C4.625 5.8125 4.625 5.8125 2 5 C0.6875 2.4375 0.6875 2.4375 0 0 Z " fill="#C50E12" transform="translate(291,382)"/>
<path d="M0 0 C4.31392226 0.4793247 6.16569547 1.7457985 9 5 C5.22454612 3.90931332 2.52956528 3.0916909 0 0 Z " fill="#470101" transform="translate(335,411)"/>
<path d="M0 0 C3.68754757 0.49831724 5.60490662 1.10067643 8 4 C5.69 3.67 3.38 3.34 1 3 C0.67 2.01 0.34 1.02 0 0 Z " fill="#BA1111" transform="translate(331,411)"/>
</svg>
